<svg xmlns="http://www.w3.org/2000/svg" width="512" height="512" viewBox="0 0 512 512">
  <defs>
    <linearGradient id="bg" x1="0" y1="0" x2="1" y2="1">
      <stop offset="0" stop-color="#0e1116"/>
      <stop offset="1" stop-color="#1b2230"/>
    </linearGradient>
    <radialGradient id="iris" cx="45%" cy="36%" r="68%">
      <stop offset="0" stop-color="#c8f2fd"/>
      <stop offset="0.45" stop-color="#4cc9f0"/>
      <stop offset="1" stop-color="#1f8fc0"/>
    </radialGradient>
    <clipPath id="eyeClip"><path d="M14,56 C22,24 98,24 106,56 C98,84 22,84 14,56 Z"/></clipPath>
  </defs>

  <rect width="512" height="512" rx="112" fill="url(#bg)"/>

  <g transform="translate(256,256) scale(3.35) translate(-60,-54)">
    <!-- eye opening -->
    <path d="M14,56 C22,24 98,24 106,56 C98,84 22,84 14,56 Z" fill="#0a0d12"/>
    <g clip-path="url(#eyeClip)">
      <circle cx="60" cy="56" r="35" fill="url(#iris)"/>
      <circle cx="60" cy="56" r="35" fill="none" stroke="#1f7fae" stroke-width="3.5"/>
      <!-- note as pupil -->
      <path d="M67,60 V37" stroke="#0a0d12" stroke-width="5.5" stroke-linecap="round"/>
      <ellipse cx="56" cy="62" rx="11.5" ry="8.5" fill="#0a0d12" transform="rotate(-20 56 62)"/>
      <!-- anime sparkle highlights -->
      <circle cx="48" cy="43" r="9.5" fill="#ffffff" opacity="0.95"/>
      <circle cx="70" cy="68" r="5" fill="#ffffff" opacity="0.85"/>
    </g>
    <!-- bold upper lash line + corner lashes -->
    <path d="M13,56 C22,22 98,22 107,56" fill="none" stroke="#57d0f2" stroke-width="7.5" stroke-linecap="round"/>
    <path d="M101,49 L115,40 M100,55 L116,53 M103,44 L113,34" stroke="#57d0f2" stroke-width="4.2" stroke-linecap="round"/>
    <!-- soft lower lid -->
    <path d="M18,60 C32,79 88,79 102,60" fill="none" stroke="#1f7fae" stroke-width="3" stroke-linecap="round" opacity="0.65"/>
  </g>
</svg>
